<svg xmlns="http://www.w3.org/2000/svg" width="16" height="24" viewBox="0 0 16 24">
  <path id="iconmonstr-award-5" d="M11.383,15.941,7.625,24l-.967-2.658L4,22.31l3.517-7.541a5.3,5.3,0,0,0,1.849.162,4.312,4.312,0,0,0,2.017,1.01Zm3.252-1.009a4.327,4.327,0,0,1-1.994,1L16.4,24l.967-2.658L20,22.31l-3.495-7.549a5.277,5.277,0,0,1-1.87.171ZM12,3a4,4,0,1,0,4,4A4.005,4.005,0,0,0,12,3Zm6.926,5.278A1.345,1.345,0,0,1,19,8.723a1.411,1.411,0,0,1-.615,1.156c-1.256.87-1.09.651-1.562,2.067a1.481,1.481,0,0,1-1.414.99h0c-1.549-.005-1.279-.088-2.528.789a1.534,1.534,0,0,1-1.753,0c-1.249-.878-.98-.794-2.528-.789h0a1.478,1.478,0,0,1-1.413-.99c-.473-1.417-.311-1.2-1.562-2.067A1.41,1.41,0,0,1,5,8.722a1.369,1.369,0,0,1,.074-.444c.483-1.411.484-1.139,0-2.555A1.38,1.38,0,0,1,5,5.278a1.411,1.411,0,0,1,.616-1.157c1.251-.868,1.089-.648,1.562-2.067a1.479,1.479,0,0,1,1.413-.99h0c1.545,0,1.271.1,2.528-.79a1.539,1.539,0,0,1,1.753,0c1.249.878.98.8,2.528.79h0a1.48,1.48,0,0,1,1.414.99c.473,1.416.307,1.2,1.562,2.067A1.41,1.41,0,0,1,19,5.277a1.349,1.349,0,0,1-.074.445C18.443,7.133,18.441,6.861,18.926,8.278ZM17,7a5,5,0,1,0-5,5A5,5,0,0,0,17,7Z" transform="translate(-4 0)" fill="#707070"/>
</svg>